<?xml version="1.0" standalone="no"?>
<!DOCTYPE svg PUBLIC "-//W3C//DTD SVG 20010904//EN"
 "http://www.w3.org/TR/2001/REC-SVG-20010904/DTD/svg10.dtd">
<svg version="1.0" xmlns="http://www.w3.org/2000/svg"
 width="1080.000000pt" height="512.000000pt" viewBox="0 0 1080.000000 512.000000"
 preserveAspectRatio="xMidYMid meet">
<metadata>
Created by potrace 1.16, written by Peter Selinger 2001-2019
</metadata>
<g transform="translate(0.000000,512.000000) scale(0.100000,-0.100000)"
fill="#000000" stroke="none">
<path d="M3499 3185 c93 -31 133 -55 198 -119 40 -37 59 -67 79 -118 14 -37
29 -70 34 -73 4 -3 13 8 18 24 20 56 -55 165 -159 231 -58 38 -172 80 -214 79
-22 0 -10 -7 44 -24z"/>
<path d="M2949 3162 c-113 -42 -237 -144 -297 -245 -29 -50 -20 -47 16 6 87
125 225 208 354 213 37 2 80 -1 95 -5 16 -5 36 -5 45 -2 15 6 15 8 -2 29 -16
19 -27 22 -92 21 -41 0 -93 -8 -119 -17z"/>
<path d="M3220 3065 c-10 -12 -10 -23 3 -58 35 -93 31 -193 -13 -309 -16 -44
-25 -56 -38 -52 -13 5 -14 4 -3 -4 11 -8 11 -14 1 -33 -19 -36 -81 -119 -88
-119 -4 0 -22 23 -41 51 -69 101 -206 197 -289 202 -33 2 -37 -1 -37 -23 0
-22 6 -25 62 -37 35 -7 76 -19 92 -28 69 -35 196 -166 187 -191 -3 -8 0 -13 7
-11 11 2 56 -80 72 -130 6 -20 3 -23 -25 -23 -42 0 -166 -29 -215 -50 -53 -23
-120 -73 -141 -105 -16 -24 -16 -27 -1 -43 16 -15 21 -12 68 37 60 60 118 92
220 121 100 27 107 27 112 -12 l4 -33 1 34 2 34 81 -6 c44 -3 83 -7 85 -10 3
-2 -9 -38 -25 -79 -50 -125 -62 -261 -29 -334 13 -28 36 -38 53 -24 11 9 9 22
-6 65 -46 131 4 351 106 470 19 21 32 41 30 43 -5 5 -24 -16 -81 -89 l-35 -45
-62 13 c-34 7 -75 13 -92 13 -29 0 -32 4 -63 92 -19 50 -30 94 -25 97 5 3 31
35 57 70 49 63 49 63 90 57 23 -4 64 -9 93 -13 l52 -6 17 -51 c40 -120 107
-223 194 -296 90 -75 219 -123 233 -86 9 22 -19 46 -55 46 -55 0 -152 57 -224
131 -46 48 -65 75 -61 88 3 12 -1 18 -11 17 -18 -1 -62 78 -65 119 -2 29 -1
30 62 38 118 15 223 60 292 126 32 31 38 65 14 75 -11 4 -33 -12 -65 -47 -58
-62 -130 -101 -230 -123 -79 -18 -97 -15 -103 18 -3 15 -4 13 -2 -6 l2 -28
-79 4 c-43 3 -81 8 -85 11 -3 4 5 36 20 71 48 119 60 271 26 340 -17 36 -32
42 -49 21z"/>
<path d="M4380 2710 l0 -50 235 0 235 0 0 50 0 50 -235 0 -235 0 0 -50z"/>
<path d="M5030 2751 c0 -6 45 -73 100 -150 55 -76 100 -144 100 -151 0 -7 -49
-82 -110 -166 l-109 -154 67 0 c55 0 71 4 85 20 9 11 17 22 17 24 0 3 82 123
183 268 101 145 192 275 201 291 l18 27 -59 0 -59 0 -81 -115 -81 -116 -79
113 -78 113 -58 3 c-35 2 -57 -1 -57 -7z"/>
<path d="M5713 2748 c2 -7 50 -77 106 -156 64 -89 99 -147 95 -155 -5 -6 -47
-66 -94 -132 -48 -66 -95 -132 -104 -147 l-18 -28 64 0 65 0 46 60 c26 33 47
62 47 65 0 3 64 96 142 208 176 251 198 284 198 290 0 2 -27 5 -60 5 -33 0
-60 -5 -60 -10 0 -5 -7 -16 -15 -24 -8 -8 -42 -56 -76 -105 -34 -50 -65 -86
-69 -82 -4 4 -38 53 -75 108 -38 55 -74 103 -79 107 -6 4 -35 8 -65 8 -38 0
-52 -3 -48 -12z"/>
<path d="M6410 2710 l0 -50 255 0 255 0 0 50 0 50 -255 0 -255 0 0 -50z"/>
<path d="M7092 2751 c-8 -5 -12 -23 -10 -47 l3 -39 170 -5 c127 -4 176 -9 192
-20 23 -15 43 -58 43 -92 0 -32 -30 -78 -58 -90 -15 -7 -99 -14 -187 -17
l-160 -6 -3 -152 -3 -153 56 0 55 0 0 110 0 110 73 0 73 0 68 -100 c38 -55 74
-105 81 -110 8 -6 39 -10 69 -8 l57 3 -80 110 c-44 61 -81 113 -81 116 0 4 14
12 30 19 47 19 98 77 111 123 31 114 -39 220 -162 246 -59 13 -318 14 -337 2z"/>
<path d="M7992 2748 c3 -7 29 -83 58 -168 30 -85 79 -220 110 -300 l56 -145
57 -3 c31 -2 57 1 56 5 0 4 -51 145 -112 313 l-112 305 -59 3 c-45 2 -57 0
-54 -10z"/>
<path d="M3996 2715 c27 -81 36 -130 36 -200 1 -108 -22 -186 -78 -257 -24
-31 -44 -59 -44 -62 0 -3 12 -6 28 -6 19 1 35 11 55 37 79 105 89 320 22 457
-14 28 -22 42 -19 31z"/>
<path d="M2551 2667 c-86 -113 -89 -334 -5 -499 13 -26 27 -48 29 -48 3 0 -3
17 -14 38 -49 96 -65 259 -36 354 23 77 47 121 56 106 7 -10 9 -10 9 2 0 9 11
31 24 51 l25 36 -28 1 c-21 0 -35 -9 -60 -41z"/>
<path d="M7911 2573 c-7 -14 -43 -103 -81 -197 -37 -94 -75 -188 -84 -208
l-16 -38 55 0 56 0 20 48 c12 26 43 101 70 168 l49 121 -25 63 c-14 35 -26 65
-28 67 -2 1 -9 -9 -16 -24z"/>
<path d="M6616 2533 c-3 -10 -4 -103 -3 -208 l2 -190 53 -3 52 -3 0 210 0 211
-49 0 c-39 0 -51 -4 -55 -17z"/>
<path d="M4380 2445 l0 -45 216 0 215 0 -3 43 -3 42 -212 3 -213 2 0 -45z"/>
<path d="M5390 2330 c-17 -22 -30 -44 -28 -48 1 -4 26 -40 53 -80 l50 -72 63
0 63 0 -44 63 c-25 34 -63 88 -85 120 l-40 57 -32 -40z"/>
<path d="M6072 2328 l-30 -44 54 -77 55 -77 60 0 c46 0 58 3 53 13 -12 18
-146 211 -155 220 -4 5 -20 -11 -37 -35z"/>
<path d="M4393 2223 c-8 -3 -13 -23 -13 -49 l0 -44 236 0 235 0 -3 48 -3 47
-220 2 c-121 1 -226 -1 -232 -4z"/>
<path d="M2713 2001 c-9 -24 -6 -37 13 -77 49 -99 187 -196 324 -228 76 -18
68 -7 -15 20 -33 10 -87 37 -119 59 -58 39 -135 120 -140 146 -2 8 -8 27 -14
42 -7 16 -12 32 -12 36 0 5 -6 13 -13 19 -10 9 -15 4 -24 -17z"/>
<path d="M3815 1906 c-49 -49 -91 -82 -140 -106 -69 -35 -72 -35 -192 -34
l-122 2 17 -24 c9 -13 26 -24 37 -25 11 0 31 -2 45 -4 87 -10 237 55 327 142
48 48 114 126 101 122 -2 -1 -34 -33 -73 -73z"/>
</g>
</svg>
