<?xml version="1.0" encoding="UTF-8" ?>
<!DOCTYPE svg PUBLIC "-//W3C//DTD SVG 1.1//EN" "http://www.w3.org/Graphics/SVG/1.1/DTD/svg11.dtd">
<svg width="950pt" height="250pt" viewBox="0 0 950 250" version="1.1" xmlns="http://www.w3.org/2000/svg">
<g id="#ffffffff">
</g>
<g id="#4c4c64ff">
<path fill="#4c4c64" opacity="1.00" d=" M 135.29 6.41 C 144.82 5.47 154.42 5.33 163.98 5.83 C 180.33 8.00 196.22 14.51 208.94 25.07 C 217.53 32.09 223.85 41.64 227.76 51.97 C 226.08 55.20 224.35 58.41 222.74 61.67 C 217.45 52.32 216.16 40.65 208.07 33.01 C 201.77 26.17 194.45 20.14 186.09 15.99 C 178.26 12.27 170.01 9.37 161.50 7.69 C 152.82 6.16 143.94 8.29 135.29 6.41 Z" />
<path fill="#4c4c64" opacity="1.00" d=" M 83.66 15.45 C 90.37 12.39 97.74 11.25 105.03 10.68 C 109.64 10.37 114.33 10.41 118.79 11.75 C 121.15 14.51 123.49 17.29 125.92 19.99 C 120.98 20.42 115.97 20.03 111.23 18.52 C 98.27 27.42 95.16 44.47 94.45 59.12 C 91.51 44.23 98.75 29.79 107.46 18.20 C 92.06 16.83 76.89 22.66 64.60 31.64 C 55.22 37.92 47.95 46.69 41.01 55.46 C 49.53 37.36 65.21 23.02 83.66 15.45 Z" />
<path fill="#4c4c64" opacity="1.00" d=" M 128.56 32.98 C 128.60 29.73 131.61 27.65 133.59 25.43 C 141.60 33.35 142.13 45.50 141.59 56.06 C 140.90 70.21 135.11 83.32 130.00 96.31 C 138.54 97.69 147.15 98.47 155.76 99.25 C 155.41 92.33 154.80 85.31 156.27 78.46 C 156.53 85.07 156.83 91.69 157.94 98.22 C 175.38 97.15 193.46 91.67 206.19 79.19 C 208.80 76.76 210.55 73.57 213.19 71.17 C 214.95 69.56 217.46 69.56 219.66 69.07 C 220.52 70.72 221.37 72.37 222.22 74.02 C 219.88 77.08 217.90 80.46 215.03 83.08 C 209.42 88.85 202.14 92.65 194.89 95.95 C 183.60 100.03 171.67 102.28 159.69 102.94 C 161.81 111.51 165.18 119.76 170.22 127.04 C 176.94 121.92 184.63 117.60 193.15 116.63 C 205.78 114.86 219.77 117.86 229.07 127.00 C 217.24 119.07 202.05 114.62 188.03 118.75 C 181.38 120.12 176.17 124.78 171.51 129.43 C 181.42 141.50 192.34 153.90 207.38 159.51 C 213.43 162.45 220.95 160.67 226.46 164.97 C 226.84 167.81 226.51 172.14 222.97 172.69 C 215.08 171.21 207.11 169.12 200.25 164.80 C 186.87 156.87 176.64 144.71 168.31 131.77 C 158.92 142.37 151.51 154.83 147.16 168.32 C 141.40 184.49 141.39 202.97 148.79 218.62 C 148.37 222.01 144.96 225.09 141.52 223.33 C 138.59 221.16 138.36 217.09 137.07 213.93 C 132.54 197.46 136.93 180.19 142.84 164.67 C 144.19 161.16 145.62 157.66 147.52 154.41 C 138.82 152.75 130.02 151.50 121.14 152.17 C 122.32 159.96 121.90 167.99 119.47 175.51 C 120.04 167.66 120.14 159.77 119.25 151.94 C 102.36 153.96 85.29 159.22 71.98 170.14 C 68.15 174.37 64.74 178.99 60.25 182.60 C 57.22 180.93 54.14 176.85 56.64 173.52 C 63.96 164.13 74.43 157.40 85.72 153.79 C 96.06 150.20 106.91 148.05 117.86 147.59 C 114.55 139.55 111.90 131.14 106.80 123.98 C 99.85 128.74 92.05 132.36 83.84 134.29 C 77.61 135.76 71.18 135.10 64.90 134.46 C 70.57 133.79 76.34 134.34 81.97 133.21 C 90.84 131.91 99.16 127.80 105.97 122.02 C 99.54 113.57 92.16 105.77 83.71 99.29 C 74.64 92.50 63.54 88.15 52.13 88.04 C 50.75 85.12 48.88 80.10 52.99 78.53 C 67.08 79.11 80.01 86.39 89.99 95.99 C 97.42 102.51 103.36 110.51 108.68 118.79 C 114.37 112.26 119.84 105.48 123.81 97.74 C 121.68 95.66 119.43 93.67 116.82 92.19 C 119.60 93.21 122.45 93.97 125.30 94.76 C 132.32 79.07 136.70 61.13 132.46 44.09 C 131.61 40.23 129.49 36.80 128.56 32.98 M 110.01 121.01 C 113.79 129.74 117.95 138.40 120.13 147.71 C 129.80 148.54 139.36 150.00 148.80 152.25 C 154.41 144.47 160.48 137.05 166.98 130.00 C 162.80 121.16 159.62 111.91 156.27 102.74 C 146.64 102.42 137.22 100.33 127.75 98.75 C 122.39 106.61 116.53 114.08 110.01 121.01 Z" />
<path fill="#4c4c64" opacity="1.00" d=" M 234.62 58.56 C 246.52 68.71 253.89 83.17 258.49 97.90 C 262.47 112.53 263.19 128.36 258.87 143.00 C 256.68 151.67 251.77 159.30 246.65 166.51 C 243.13 166.41 239.60 166.33 236.08 166.32 C 239.11 162.23 241.68 157.82 244.74 153.75 C 244.58 151.51 244.36 149.28 244.15 147.05 C 245.08 149.05 246.03 151.04 247.00 153.03 C 256.82 137.09 259.43 117.23 255.37 99.07 C 252.93 88.22 248.70 77.70 242.45 68.47 C 240.12 64.96 237.15 61.92 234.62 58.56 Z" />
<path fill="#4c4c64" opacity="1.00" d=" M 31.55 75.57 C 31.86 78.71 32.00 81.88 31.87 85.05 C 35.15 84.66 38.45 84.33 41.62 83.40 C 38.19 88.71 33.84 93.54 31.71 99.58 C 31.10 99.54 29.88 99.45 29.26 99.41 C 19.14 115.59 17.86 135.85 22.30 154.06 C 25.42 165.15 30.12 175.76 36.33 185.46 C 17.63 164.56 11.20 133.95 18.14 106.98 C 19.82 95.30 32.03 87.85 31.55 75.57 Z" />
<path fill="#4c4c64" opacity="1.00" d=" M 311.22 76.43 C 335.81 76.71 360.41 76.82 385.00 77.25 C 385.11 82.34 385.11 87.43 385.31 92.52 C 360.54 92.92 335.77 93.08 311.00 92.75 C 311.06 87.31 311.21 81.87 311.22 76.43 Z" />
<path fill="#4c4c64" opacity="1.00" d=" M 478.64 78.52 C 484.60 73.95 492.39 77.84 499.16 77.22 C 476.85 110.24 453.32 142.44 431.38 175.71 C 423.77 175.81 416.16 175.66 408.56 175.80 C 415.30 166.73 421.56 157.30 428.19 148.15 C 433.55 140.67 439.03 133.26 444.15 125.62 C 435.08 112.23 425.71 98.96 416.02 85.99 C 413.82 83.10 411.90 79.97 409.29 77.43 C 415.17 77.46 421.03 76.09 426.92 76.67 C 432.69 77.61 434.96 83.77 438.02 87.98 C 443.70 96.06 449.02 104.40 454.88 112.36 C 462.80 101.08 470.62 89.72 478.64 78.52 Z" />
<path fill="#4c4c64" opacity="1.00" d=" M 873.12 76.19 C 879.19 76.34 885.26 76.18 891.33 76.31 C 899.65 99.72 908.51 122.94 916.86 146.35 C 920.50 156.14 923.82 166.05 927.64 175.78 C 921.44 175.72 915.25 175.74 909.07 175.76 C 900.78 154.32 892.61 132.83 884.78 111.22 C 880.32 99.73 877.15 87.82 873.12 76.19 Z" />
<path fill="#4c4c64" opacity="1.00" d=" M 516.27 77.18 C 523.15 77.32 530.05 77.25 536.94 77.23 C 545.22 89.04 553.60 100.79 561.58 112.81 C 569.10 100.53 577.70 88.94 586.07 77.23 C 592.53 77.26 598.99 77.30 605.46 77.20 C 582.98 110.17 560.05 142.83 537.41 175.69 C 529.93 175.91 522.46 175.56 514.99 175.61 C 527.23 159.12 538.76 142.11 550.84 125.51 C 539.05 109.59 528.08 93.08 516.27 77.18 Z" />
<path fill="#4c4c64" opacity="1.00" d=" M 627.37 76.37 C 654.09 77.75 680.84 76.78 707.57 77.22 C 707.44 82.58 707.49 87.95 707.53 93.31 C 680.84 93.21 654.16 93.21 627.48 93.31 C 627.48 87.66 627.62 82.01 627.37 76.37 Z" />
<path fill="#4c4c64" opacity="1.00" d=" M 732.00 77.25 C 745.00 77.17 758.00 76.82 771.01 77.25 C 778.15 77.56 785.56 76.73 792.40 79.33 C 800.56 82.06 807.14 88.52 810.68 96.29 C 813.15 101.82 812.91 108.07 812.58 113.98 C 810.79 126.13 800.28 134.65 789.49 139.01 C 798.46 151.19 807.13 163.59 815.97 175.85 C 809.32 175.63 802.66 175.78 796.01 175.76 C 789.78 167.69 783.60 159.58 778.10 150.99 C 775.61 147.61 773.78 143.11 769.49 141.69 C 762.85 139.54 755.92 142.14 749.16 141.19 C 749.41 152.71 749.16 164.23 749.00 175.75 C 743.33 175.74 737.66 175.74 732.00 175.75 C 732.07 159.17 732.18 142.58 732.25 126.00 C 745.82 125.99 759.40 126.01 772.98 126.00 C 778.73 126.07 784.66 124.72 789.50 121.54 C 796.92 116.17 796.67 104.57 791.33 97.83 C 786.60 93.65 779.97 93.00 773.94 92.99 C 760.02 92.95 746.10 92.73 732.18 92.83 C 732.24 87.64 732.06 82.45 732.00 77.25 Z" />
<path fill="#4c4c64" opacity="1.00" d=" M 832.67 175.77 C 842.71 150.33 852.92 124.96 863.28 99.65 C 866.05 107.53 870.08 114.99 871.77 123.23 C 865.26 140.96 857.93 158.37 850.57 175.76 C 844.60 175.74 838.64 175.72 832.67 175.77 Z" />
<path fill="#4c4c64" opacity="1.00" d=" M 659.25 109.63 C 664.87 108.63 670.58 109.08 676.25 109.01 C 676.50 131.27 676.46 153.53 676.56 175.79 C 670.71 175.70 664.85 175.76 659.01 175.75 C 658.68 153.71 658.78 131.67 659.25 109.63 Z" />
<path fill="#4c4c64" opacity="1.00" d=" M 310.99 118.00 C 333.16 118.01 355.34 117.98 377.51 118.02 C 377.60 123.29 377.61 128.56 377.83 133.83 C 355.62 133.68 333.40 133.70 311.18 133.82 C 311.24 128.55 311.06 123.27 310.99 118.00 Z" />
<path fill="#4c4c64" opacity="1.00" d=" M 463.62 151.42 C 465.45 145.71 470.27 141.87 473.53 137.04 C 479.97 146.96 487.02 156.47 493.99 166.03 C 496.37 169.28 498.22 172.93 501.01 175.89 C 494.15 175.58 487.29 175.81 480.43 175.75 C 474.68 167.74 469.26 159.51 463.62 151.42 Z" />
<path fill="#4c4c64" opacity="1.00" d=" M 569.97 151.19 C 572.24 145.83 576.37 141.68 579.99 137.24 C 589.06 150.10 597.92 163.12 607.19 175.84 C 600.30 175.60 593.41 175.89 586.53 175.65 C 581.20 167.36 575.15 159.57 569.97 151.19 Z" />
<path fill="#4c4c64" opacity="1.00" d=" M 310.99 160.00 C 335.66 160.00 360.33 160.00 385.00 160.00 C 385.00 165.25 385.01 170.50 384.99 175.75 C 360.39 175.79 335.78 175.64 311.18 175.82 C 311.24 170.55 311.06 165.27 310.99 160.00 Z" />
<path fill="#4c4c64" opacity="1.00" d=" M 173.66 168.53 C 182.05 177.70 184.53 191.09 182.89 203.11 C 181.75 209.92 180.14 217.04 175.68 222.52 C 183.96 205.75 184.51 184.31 173.66 168.53 Z" />
<path fill="#4c4c64" opacity="1.00" d=" M 51.90 204.88 C 49.69 199.66 50.16 193.35 53.94 188.97 C 56.46 193.64 58.68 198.47 60.27 203.54 C 65.41 204.65 70.64 205.88 75.94 205.33 C 85.95 204.85 95.20 200.56 103.93 195.99 C 92.33 205.26 76.29 209.27 61.88 205.00 C 62.51 207.30 62.82 209.78 64.19 211.81 C 73.96 225.99 89.32 235.40 105.52 240.58 C 116.73 243.57 128.50 244.56 140.04 243.19 C 145.62 242.55 150.90 240.55 156.30 239.11 C 126.26 252.73 89.12 244.89 65.04 223.00 C 59.64 217.82 54.86 211.80 51.90 204.88 Z" />
<path fill="#4c4c64" opacity="1.00" d=" M 180.05 232.67 C 202.74 229.55 221.58 214.19 235.35 196.69 C 225.79 214.81 209.71 229.75 190.17 236.37 C 179.69 240.43 168.19 241.06 157.16 239.25 C 155.29 236.11 153.36 233.00 151.38 229.92 C 160.97 230.54 170.41 233.07 180.05 232.67 Z" />
</g>
</svg>
