<?xml version="1.0" encoding="UTF-8" ?>
<!DOCTYPE svg PUBLIC "-//W3C//DTD SVG 1.1//EN" "http://www.w3.org/Graphics/SVG/1.1/DTD/svg11.dtd">
<svg width="1080pt" height="512pt" viewBox="0 0 1080 512" version="1.1" xmlns="http://www.w3.org/2000/svg">
<g id="#ffffffff">
</g>
<g id="#4c4d64ff">
<path fill="#4c4d64" opacity="1.00" d=" M 324.74 191.20 C 328.00 189.81 331.58 190.49 335.01 190.34 C 351.00 189.19 367.35 196.11 377.93 208.10 C 381.12 211.54 382.56 216.05 384.52 220.21 C 390.85 224.70 396.02 230.72 399.28 237.77 C 405.33 248.03 407.01 260.26 406.05 271.98 C 405.23 278.70 402.78 285.26 398.49 290.55 C 395.80 293.48 396.33 297.69 395.24 301.26 C 391.95 311.47 385.60 320.44 377.97 327.87 C 368.89 335.57 357.30 341.92 345.02 340.63 C 340.20 339.89 335.58 341.70 331.09 343.17 C 329.71 343.43 328.35 343.72 326.99 344.06 C 321.97 344.43 316.88 344.73 311.89 343.89 C 298.46 342.92 285.61 336.34 276.67 326.33 C 273.73 323.03 272.23 318.83 270.13 315.04 C 267.33 311.81 263.63 309.46 261.10 305.98 C 249.00 290.69 244.11 268.83 251.67 250.46 C 252.87 246.74 256.39 244.40 257.71 240.78 C 260.39 220.50 275.46 202.73 294.46 195.57 C 300.03 193.34 306.18 193.14 312.10 193.62 C 315.56 193.66 316.94 197.28 319.01 199.43 C 315.90 199.92 312.78 199.55 309.78 198.67 C 308.90 199.09 308.02 199.50 307.14 199.91 C 301.05 207.83 297.79 218.08 299.76 228.03 C 301.39 237.67 309.39 245.38 318.74 247.67 C 323.83 235.92 327.35 221.79 321.42 209.68 C 319.70 207.05 322.14 204.75 323.97 203.12 C 329.72 208.30 329.63 216.85 329.09 223.96 C 328.46 232.58 325.02 240.55 321.75 248.42 C 327.20 249.69 332.83 249.75 338.38 250.34 C 337.36 241.74 338.36 231.93 344.73 225.47 C 342.76 229.73 339.82 233.66 339.22 238.43 C 338.44 242.22 338.95 246.09 339.72 249.85 C 348.14 249.31 356.41 246.87 363.86 242.92 C 368.39 240.59 371.59 236.54 374.78 232.71 C 375.81 231.11 377.83 231.38 379.47 231.21 C 379.97 232.19 380.47 233.17 380.98 234.15 C 376.78 242.23 368.13 246.49 359.94 249.46 C 353.80 251.66 347.26 252.30 340.81 252.79 C 342.26 258.25 344.19 263.63 347.64 268.17 C 351.66 265.77 355.49 262.73 360.15 261.69 C 364.44 261.12 368.83 260.68 373.13 261.47 C 384.22 264.94 393.83 273.66 396.77 285.12 C 408.81 265.57 403.71 238.28 387.10 222.95 C 386.04 222.06 384.86 221.35 383.69 220.64 C 383.19 222.30 382.70 223.96 382.23 225.63 C 381.88 225.62 381.19 225.60 380.84 225.59 C 379.60 222.62 378.31 219.68 377.20 216.67 C 371.98 215.26 366.60 215.48 361.26 215.67 C 364.58 215.63 367.38 213.33 370.65 213.54 C 370.96 213.92 371.58 214.68 371.89 215.06 C 373.66 215.32 375.44 215.56 377.23 215.78 C 371.26 203.55 358.76 195.79 345.89 192.53 C 339.03 190.39 331.78 191.54 324.74 191.20 M 275.40 210.36 C 266.13 218.10 260.14 229.36 258.36 241.26 C 260.46 240.93 262.57 240.63 264.69 240.38 C 263.15 243.45 260.83 246.02 259.02 248.92 C 260.05 256.74 265.90 262.73 271.75 267.48 C 278.28 271.98 286.78 273.88 294.48 271.62 C 298.38 270.52 301.72 268.19 305.12 266.09 C 305.33 265.67 305.76 264.82 305.98 264.40 C 300.17 257.15 293.56 250.23 285.12 246.08 C 280.99 244.04 276.34 243.65 271.84 243.16 C 271.27 241.64 270.72 240.10 270.19 238.57 C 272.98 236.14 276.90 237.33 280.06 238.28 C 292.18 242.57 301.42 252.28 308.10 262.97 C 311.81 258.60 315.66 254.20 317.86 248.84 C 308.39 244.97 299.38 236.92 298.81 226.07 C 297.08 216.01 301.09 205.80 307.60 198.25 C 295.68 197.14 284.23 202.74 275.40 210.36 M 251.85 263.82 C 250.07 275.29 251.44 287.46 257.20 297.67 C 260.00 304.25 265.18 309.24 270.16 314.19 C 271.08 312.08 271.97 309.96 272.93 307.87 C 275.62 312.24 276.77 317.32 278.97 321.91 C 286.39 333.10 299.03 340.03 312.02 342.50 C 318.02 343.08 324.24 344.15 330.15 342.41 C 332.99 341.58 336.64 341.41 338.47 338.79 C 337.48 337.31 336.47 335.87 335.52 334.38 C 338.82 334.30 342.09 334.83 345.26 335.78 C 355.98 326.60 358.33 309.11 350.96 297.19 C 347.24 292.23 342.21 287.36 335.65 287.06 C 331.59 296.36 328.98 306.69 330.45 316.88 C 330.80 320.53 332.93 323.61 333.86 327.09 C 333.51 328.62 332.16 329.61 331.24 330.80 C 330.20 330.29 329.17 329.78 328.13 329.29 C 324.00 320.98 324.55 311.25 326.61 302.45 C 327.87 296.37 331.00 290.95 333.01 285.13 C 336.95 279.96 340.94 274.79 345.55 270.19 C 342.73 264.54 340.68 258.60 338.70 252.62 C 332.48 252.63 326.46 250.95 320.34 250.05 C 317.05 255.19 313.12 259.89 308.99 264.37 C 311.49 269.96 314.02 275.58 315.46 281.56 C 320.73 281.81 326.03 282.40 331.13 283.78 C 331.02 284.04 330.79 284.55 330.67 284.81 C 325.91 285.03 321.01 283.77 316.16 284.31 C 316.78 291.45 316.63 299.44 312.27 305.46 C 315.22 298.79 316.18 291.44 314.79 284.25 C 304.94 285.18 295.10 288.17 286.95 293.90 C 283.14 296.36 281.13 300.61 277.63 303.42 C 277.11 303.38 276.08 303.30 275.56 303.26 C 272.23 300.24 275.44 296.24 278.07 294.05 C 287.81 285.31 301.10 282.30 313.82 281.40 C 311.86 276.13 310.38 270.47 306.54 266.17 C 299.69 271.59 290.71 274.42 281.99 273.06 C 278.44 271.09 274.34 270.17 271.07 267.70 C 265.19 262.91 259.56 257.18 257.83 249.52 C 254.69 253.72 252.95 258.74 251.85 263.82 M 359.10 262.46 C 355.33 264.49 351.20 266.19 348.57 269.75 C 355.02 278.26 362.97 286.52 373.45 289.75 C 376.39 290.77 379.70 290.25 382.52 291.67 C 384.14 292.56 383.88 294.75 383.45 296.25 C 381.90 298.22 379.19 297.14 377.14 296.79 C 363.66 293.36 353.47 282.54 346.27 271.15 C 345.13 272.69 343.98 274.24 342.73 275.71 C 340.34 278.58 338.38 281.76 336.69 285.09 C 344.19 289.07 352.37 294.41 354.53 303.18 C 357.60 312.84 355.77 323.70 350.22 332.11 C 348.80 333.22 347.48 334.49 346.82 336.22 C 370.87 337.04 392.78 316.79 395.99 293.30 C 393.98 293.39 391.99 293.51 389.98 293.59 C 391.67 290.63 393.69 287.88 395.70 285.13 C 394.44 279.27 390.72 274.41 386.86 270.00 C 381.58 265.48 375.07 262.36 368.18 261.39 C 365.15 261.70 362.13 262.13 359.10 262.46 Z" />
<path fill="#4c4d64" opacity="1.00" d=" M 546.08 235.83 C 550.33 235.84 554.57 235.87 558.82 235.75 C 549.49 250.33 539.09 264.19 529.46 278.57 C 524.65 285.52 519.42 292.21 515.13 299.50 C 510.31 299.52 505.49 299.56 500.67 299.47 C 507.78 288.40 516.38 278.31 523.21 267.08 C 516.41 256.56 508.68 246.62 501.55 236.29 C 506.02 236.10 510.51 236.08 514.98 236.36 C 519.74 244.08 525.35 251.22 530.19 258.89 C 535.36 251.11 541.08 243.71 546.08 235.83 Z" />
<path fill="#4c4d64" opacity="1.00" d=" M 798.46 235.62 C 802.46 235.67 806.46 235.67 810.47 235.60 C 818.11 256.92 826.11 278.10 833.65 299.46 C 829.69 299.52 825.74 299.52 821.79 299.46 C 813.40 278.40 805.70 257.09 798.46 235.62 Z" />
<path fill="#4c4d64" opacity="1.00" d=" M 438.13 235.71 C 440.76 235.80 443.39 235.85 446.03 235.87 C 459.20 235.66 472.36 236.07 485.52 236.22 C 485.51 239.59 485.52 242.95 485.45 246.32 C 469.62 246.26 453.79 246.33 437.96 246.30 C 437.97 242.77 437.94 239.23 438.13 235.71 Z" />
<path fill="#4c4d64" opacity="1.00" d=" M 569.86 236.31 C 574.32 236.09 578.80 236.09 583.26 236.29 C 588.02 243.60 593.07 250.71 598.00 257.90 C 598.32 257.84 598.96 257.73 599.27 257.68 C 604.57 250.79 608.97 243.24 614.37 236.43 C 618.52 235.91 622.72 236.27 626.89 236.29 C 614.85 254.36 602.07 271.94 589.91 289.93 C 587.64 292.98 585.63 296.24 583.22 299.18 C 578.55 299.94 573.76 299.40 569.05 299.43 C 576.42 288.52 584.47 278.08 591.77 267.13 C 584.55 256.80 577.03 246.68 569.86 236.31 Z" />
<path fill="#4c4d64" opacity="1.00" d=" M 641.15 235.68 C 658.24 236.82 675.40 235.68 692.52 236.35 C 692.49 239.72 692.52 243.10 692.52 246.47 C 675.37 246.43 658.22 246.49 641.07 246.46 C 640.95 242.86 640.93 239.27 641.15 235.68 Z" />
<path fill="#4c4d64" opacity="1.00" d=" M 708.21 236.26 C 718.14 236.17 728.08 236.17 738.02 236.23 C 744.92 236.26 752.49 238.62 756.53 244.58 C 760.36 249.81 760.84 256.85 759.05 262.93 C 758.03 267.27 754.31 270.12 751.17 272.96 C 749.13 273.73 747.09 274.52 745.25 275.68 C 750.42 283.83 756.59 291.34 761.90 299.42 C 757.57 299.55 753.25 299.51 748.93 299.47 C 743.57 292.20 738.52 284.72 733.31 277.34 C 728.63 277.26 723.96 277.27 719.29 277.32 C 719.21 284.68 719.22 292.06 719.29 299.43 C 715.60 299.50 711.91 299.50 708.22 299.53 C 708.25 288.87 708.20 278.21 708.25 267.55 C 717.52 267.43 726.80 267.58 736.07 267.46 C 739.87 267.51 743.71 266.15 746.53 263.58 C 748.93 260.64 749.25 256.48 748.10 252.97 C 747.26 248.41 742.10 246.71 738.05 246.43 C 728.12 246.09 718.18 246.45 708.25 246.24 C 708.24 242.91 708.23 239.59 708.21 236.26 Z" />
<path fill="#4c4d64" opacity="1.00" d=" M 779.32 283.29 C 783.68 272.42 787.88 261.47 792.51 250.71 C 794.62 255.43 796.06 260.42 798.25 265.11 C 793.94 276.71 789.04 288.09 784.29 299.52 C 780.48 299.48 776.66 299.49 772.86 299.53 C 774.52 293.93 777.16 288.70 779.32 283.29 Z" />
<path fill="#4c4d64" opacity="1.00" d=" M 661.38 256.62 C 665.06 256.66 668.73 256.66 672.42 256.61 C 672.62 270.92 672.41 285.23 672.53 299.55 C 668.77 299.49 665.01 299.49 661.26 299.56 C 661.29 285.25 661.08 270.93 661.38 256.62 Z" />
<path fill="#4c4d64" opacity="1.00" d=" M 438.04 262.41 C 452.25 262.47 466.46 262.45 480.68 262.43 C 480.79 265.77 480.80 269.11 480.77 272.45 C 466.49 272.50 452.21 272.55 437.93 272.44 C 437.97 269.10 437.97 265.75 438.04 262.41 Z" />
<path fill="#4c4d64" opacity="1.00" d=" M 542.22 274.67 C 547.79 283.06 554.19 290.90 559.40 299.52 C 555.17 299.52 550.94 299.49 546.72 299.52 C 542.93 294.31 539.39 288.93 535.52 283.78 C 537.44 280.53 539.86 277.61 542.22 274.67 Z" />
<path fill="#4c4d64" opacity="1.00" d=" M 604.33 283.86 C 605.17 280.31 608.47 277.63 610.57 274.64 C 616.34 283.25 622.97 291.33 628.08 300.35 C 623.89 298.69 619.26 299.81 614.88 299.45 C 611.57 294.11 607.41 289.33 604.33 283.86 Z" />
<path fill="#4c4d64" opacity="1.00" d=" M 438.03 289.31 C 453.85 289.25 469.68 289.20 485.51 289.30 C 485.51 292.71 485.53 296.12 485.51 299.53 C 469.69 299.52 453.87 299.50 438.05 299.55 C 437.96 296.13 437.97 292.72 438.03 289.31 Z" />
</g>
</svg>
