<?xml version="1.0" encoding="UTF-8" ?>
<!DOCTYPE svg PUBLIC "-//W3C//DTD SVG 1.1//EN" "http://www.w3.org/Graphics/SVG/1.1/DTD/svg11.dtd">
<svg width="1000pt" height="1000pt" viewBox="0 0 1000 1000" version="1.1" xmlns="http://www.w3.org/2000/svg">
<g id="#ffffffff">
</g>
<g id="#4c4c64ff">
<path fill="#4c4c64" opacity="1.00" d=" M 164.94 398.49 C 174.58 397.45 184.31 397.32 193.99 397.84 C 211.26 400.10 228.01 407.29 241.07 418.89 C 248.57 425.73 254.18 434.49 257.76 443.96 C 256.08 447.18 254.37 450.40 252.74 453.65 C 248.24 445.63 246.62 436.23 241.30 428.66 C 234.43 420.49 226.27 413.21 216.73 408.31 C 209.50 404.79 201.90 402.02 194.06 400.23 C 184.50 397.79 174.58 400.35 164.94 398.49 Z" />
<path fill="#4c4c64" opacity="1.00" d=" M 122.16 404.54 C 130.87 402.82 140.04 401.41 148.77 403.72 C 151.13 406.50 153.49 409.27 155.92 412.00 C 150.98 412.42 145.97 412.01 141.23 410.52 C 133.17 415.75 128.90 425.00 126.73 434.05 C 125.23 439.61 124.86 445.38 124.23 451.08 C 123.71 446.38 123.55 441.58 124.51 436.92 C 126.22 427.00 131.67 418.25 137.44 410.20 C 119.59 408.59 102.42 416.71 88.99 427.91 C 81.94 433.74 76.14 440.89 70.60 448.13 C 80.47 427.08 99.79 410.79 122.16 404.54 Z" />
<path fill="#4c4c64" opacity="1.00" d=" M 163.53 417.43 C 171.63 425.30 172.12 437.51 171.59 448.08 C 170.89 462.22 165.12 475.32 159.99 488.30 C 168.54 489.69 177.16 490.47 185.78 491.25 C 185.33 484.23 184.91 477.13 186.23 470.18 C 186.53 476.88 186.82 483.60 187.94 490.23 C 205.16 489.16 222.98 483.82 235.68 471.67 C 238.31 469.29 240.18 466.24 242.61 463.70 C 244.42 461.68 247.23 461.52 249.71 461.09 C 250.53 462.68 251.44 464.25 252.06 465.95 C 245.97 476.85 234.98 483.84 223.68 488.40 C 212.74 492.16 201.24 494.32 189.69 494.94 C 191.81 503.51 195.18 511.77 200.23 519.04 C 207.37 513.53 215.71 509.10 224.86 508.43 C 237.14 507.10 250.45 510.38 259.39 519.26 C 247.05 510.72 230.85 506.32 216.25 511.25 C 210.34 512.90 205.80 517.27 201.49 521.41 C 211.42 533.49 222.34 545.90 237.39 551.52 C 243.48 554.42 250.97 552.72 256.52 556.98 C 256.72 559.78 256.58 564.01 253.11 564.67 C 241.51 563.01 230.40 558.23 221.44 550.63 C 212.09 543.20 204.76 533.62 198.24 523.70 C 188.50 535.05 180.64 548.20 176.42 562.62 C 171.64 577.39 171.67 593.95 177.81 608.34 C 179.03 610.42 178.70 613.21 176.65 614.66 C 174.66 616.63 170.76 615.97 169.70 613.31 C 164.09 600.99 164.20 586.81 167.45 573.87 C 169.80 564.41 172.89 555.04 177.49 546.43 C 168.82 544.71 160.03 543.52 151.17 544.17 C 152.36 552.10 151.81 560.21 149.42 567.87 C 150.06 559.90 150.13 551.88 149.25 543.92 C 132.36 545.99 115.27 551.20 101.96 562.16 C 98.14 566.39 94.72 571.00 90.24 574.61 C 87.27 572.92 84.16 568.93 86.59 565.60 C 94.85 554.81 107.25 547.90 120.19 544.36 C 129.15 541.55 138.49 540.04 147.86 539.58 C 144.55 531.54 141.90 523.13 136.79 515.98 C 129.97 520.66 122.33 524.23 114.29 526.19 C 107.94 527.76 101.34 527.18 94.93 526.39 C 100.60 525.84 106.34 526.31 111.96 525.21 C 120.84 523.91 129.15 519.79 135.98 514.03 C 125.52 500.71 113.05 487.55 96.44 482.37 C 91.84 480.68 86.95 480.29 82.11 480.04 C 80.79 477.11 78.85 472.05 83.02 470.54 C 97.10 471.09 110.00 478.41 119.98 487.98 C 127.41 494.51 133.36 502.51 138.68 510.79 C 144.37 504.26 149.84 497.47 153.82 489.73 C 151.93 487.99 150.00 486.29 148.02 484.65 C 150.44 485.37 152.87 486.08 155.30 486.76 C 162.14 471.44 166.49 454.02 162.75 437.31 C 161.95 433.02 159.68 429.21 158.57 425.03 C 158.56 421.77 161.61 419.70 163.53 417.43 M 140.01 513.01 C 143.79 521.74 147.95 530.40 150.14 539.71 C 159.79 540.54 169.36 541.98 178.78 544.26 C 184.41 536.48 190.47 529.05 196.98 522.00 C 192.82 513.15 189.61 503.91 186.27 494.74 C 176.64 494.41 167.22 492.34 157.75 490.74 C 152.40 498.61 146.53 506.08 140.01 513.01 Z" />
<path fill="#4c4c64" opacity="1.00" d=" M 264.07 449.99 C 270.48 455.31 275.51 462.09 279.71 469.24 C 292.03 490.65 295.86 517.61 286.90 540.96 C 284.34 547.28 280.56 552.99 276.62 558.52 C 273.13 558.41 269.63 558.33 266.14 558.31 C 268.96 554.13 271.89 550.02 274.54 545.73 C 274.92 543.45 274.23 541.13 274.09 538.87 C 275.03 540.93 275.99 542.99 277.00 545.04 C 285.31 531.53 288.50 515.13 286.74 499.42 C 284.62 481.10 276.69 463.48 264.07 449.99 Z" />
<path fill="#4c4c64" opacity="1.00" d=" M 61.58 467.09 C 61.82 470.40 61.98 473.72 61.90 477.05 C 65.15 476.68 68.40 476.23 71.58 475.44 C 68.18 480.75 63.84 485.55 61.71 491.56 C 61.09 491.53 59.86 491.46 59.24 491.42 C 49.16 507.60 47.86 527.82 52.30 546.02 C 55.50 557.41 60.33 568.35 66.88 578.22 C 46.63 555.79 40.29 522.28 49.65 493.72 C 53.40 484.71 62.21 477.63 61.58 467.09 Z" />
<path fill="#4c4c64" opacity="1.00" d=" M 341.22 468.43 C 365.82 468.71 390.41 468.82 415.01 469.25 C 415.10 474.34 415.13 479.43 415.30 484.52 C 390.53 484.93 365.76 485.08 340.99 484.74 C 341.07 479.30 341.21 473.87 341.22 468.43 Z" />
<path fill="#4c4c64" opacity="1.00" d=" M 508.60 470.59 C 514.51 465.91 522.39 469.83 529.16 469.23 C 506.83 502.24 483.33 534.46 461.36 567.72 C 453.76 567.80 446.16 567.67 438.57 567.80 C 450.53 551.08 462.38 534.26 474.33 517.52 C 462.72 501.45 451.82 484.83 439.34 469.42 C 444.24 469.36 449.11 468.61 454.01 468.50 C 456.55 468.42 459.34 468.85 461.25 470.67 C 464.57 473.87 466.61 478.08 469.24 481.81 C 474.49 489.36 479.72 496.93 484.75 504.63 C 492.62 493.22 500.55 481.86 508.60 470.59 Z" />
<path fill="#4c4c64" opacity="1.00" d=" M 903.12 468.19 C 909.17 468.32 915.23 468.22 921.29 468.27 C 929.86 492.16 938.84 515.91 947.39 539.81 C 950.84 549.12 954.01 558.54 957.63 567.78 C 951.44 567.71 945.25 567.74 939.07 567.76 C 929.57 543.24 920.28 518.63 911.40 493.88 C 908.55 485.34 906.08 476.69 903.12 468.19 Z" />
<path fill="#4c4c64" opacity="1.00" d=" M 546.27 469.16 C 553.18 469.35 560.09 469.21 567.01 469.26 C 575.15 481.13 583.72 492.73 591.51 504.84 C 599.10 492.60 607.67 481.01 615.99 469.26 C 622.47 469.23 628.95 469.31 635.44 469.20 C 612.97 502.19 590.05 534.88 567.36 567.71 C 559.91 567.87 552.46 567.59 545.01 567.60 C 557.22 551.10 568.78 534.12 580.83 517.50 C 569.06 501.57 558.06 485.08 546.27 469.16 Z" />
<path fill="#4c4c64" opacity="1.00" d=" M 657.39 468.38 C 684.10 469.73 710.84 468.79 737.56 469.22 C 737.45 474.58 737.48 479.94 737.53 485.31 C 710.84 485.21 684.16 485.21 657.48 485.31 C 657.49 479.66 657.59 474.02 657.39 468.38 Z" />
<path fill="#4c4c64" opacity="1.00" d=" M 761.99 469.26 C 774.99 469.17 788.00 468.83 801.00 469.25 C 808.22 469.54 815.72 468.73 822.61 471.41 C 830.98 474.28 837.67 481.08 841.06 489.18 C 843.10 494.44 842.88 500.23 842.61 505.76 C 840.93 518.02 830.35 526.63 819.49 531.01 C 828.46 543.18 837.13 555.57 845.96 567.84 C 839.29 567.64 832.63 567.79 825.97 567.74 C 819.14 558.90 812.48 549.94 806.47 540.52 C 804.59 537.75 802.70 534.55 799.25 533.62 C 792.68 531.63 785.84 534.08 779.16 533.22 C 779.41 544.73 779.16 556.24 779.00 567.74 C 773.33 567.74 767.66 567.74 762.00 567.75 C 762.08 551.16 762.18 534.58 762.25 518.00 C 776.87 517.92 791.51 518.14 806.13 517.90 C 813.24 517.24 821.77 514.57 824.31 507.09 C 826.52 499.98 824.67 489.91 816.93 487.07 C 811.91 484.88 806.32 485.03 800.97 484.96 C 788.04 484.95 775.11 484.72 762.18 484.83 C 762.23 479.63 762.07 474.45 761.99 469.26 Z" />
<path fill="#4c4c64" opacity="1.00" d=" M 881.76 519.95 C 885.59 510.47 889.59 501.06 893.26 491.51 C 895.99 499.46 900.07 506.94 901.78 515.23 C 895.25 532.96 887.94 550.37 880.57 567.76 C 874.60 567.74 868.64 567.73 862.68 567.77 C 869.14 551.87 875.18 535.80 881.76 519.95 Z" />
<path fill="#4c4c64" opacity="1.00" d=" M 689.25 501.62 C 694.87 500.66 700.58 501.06 706.25 501.01 C 706.51 523.26 706.46 545.52 706.56 567.77 C 700.71 567.71 694.85 567.75 689.00 567.75 C 688.68 545.70 688.79 523.66 689.25 501.62 Z" />
<path fill="#4c4c64" opacity="1.00" d=" M 340.99 510.00 C 363.16 510.01 385.33 509.99 407.51 510.01 C 407.60 515.28 407.62 520.55 407.83 525.83 C 385.61 525.69 363.39 525.70 341.18 525.82 C 341.23 520.54 341.07 515.27 340.99 510.00 Z" />
<path fill="#4c4c64" opacity="1.00" d=" M 493.61 543.40 C 495.49 537.73 500.24 533.86 503.53 529.05 C 512.13 542.29 521.90 554.72 530.71 567.82 C 523.95 567.67 517.19 567.77 510.43 567.75 C 504.68 559.73 499.25 551.49 493.61 543.40 Z" />
<path fill="#4c4c64" opacity="1.00" d=" M 599.96 543.19 C 602.26 537.85 606.35 533.67 609.99 529.25 C 619.06 542.10 627.92 555.12 637.19 567.83 C 630.34 567.64 623.49 567.80 616.64 567.72 C 611.19 559.47 605.20 551.58 599.96 543.19 Z" />
<path fill="#4c4c64" opacity="1.00" d=" M 340.99 552.00 C 365.66 552.00 390.33 552.00 415.00 552.00 C 415.00 557.25 415.00 562.50 414.99 567.75 C 390.39 567.79 365.78 567.65 341.18 567.82 C 341.24 562.54 341.07 557.27 340.99 552.00 Z" />
<path fill="#4c4c64" opacity="1.00" d=" M 203.15 559.78 C 211.52 568.86 214.47 581.96 213.03 594.00 C 212.02 601.54 210.01 609.23 205.26 615.34 C 214.10 598.18 214.67 575.88 203.15 559.78 Z" />
<path fill="#4c4c64" opacity="1.00" d=" M 81.65 596.20 C 79.68 591.11 80.37 585.18 83.93 580.96 C 86.46 585.62 88.67 590.47 90.27 595.54 C 95.43 596.66 100.69 597.87 106.00 597.32 C 116.00 596.82 125.27 592.55 133.99 587.96 C 122.37 597.25 106.32 601.24 91.88 597.02 C 92.50 599.35 92.86 601.86 94.25 603.90 C 103.89 617.84 118.95 627.15 134.84 632.37 C 151.75 637.13 170.12 637.16 186.66 630.96 C 156.33 644.87 118.62 636.89 94.50 614.48 C 89.18 609.24 84.41 603.19 81.65 596.20 Z" />
<path fill="#4c4c64" opacity="1.00" d=" M 210.04 624.66 C 232.99 621.52 251.99 605.87 265.79 588.10 C 257.42 603.63 244.74 617.11 228.73 624.84 C 221.78 628.06 214.47 630.67 206.85 631.75 C 200.31 632.62 193.68 632.16 187.17 631.26 C 185.30 628.12 183.36 625.01 181.39 621.92 C 190.97 622.54 200.41 625.08 210.04 624.66 Z" />
</g>
</svg>
